<?xml version="1.0" encoding="utf-8"?>
<!-- Generator: Adobe Illustrator 27.5.0, SVG Export Plug-In . SVG Version: 6.00 Build 0)  -->
<svg version="1.1" xmlns="http://www.w3.org/2000/svg" xmlns:xlink="http://www.w3.org/1999/xlink" x="0px" y="0px"
	 viewBox="0 0 1122 1122" style="enable-background:new 0 0 1122 1122;" xml:space="preserve">
<g id="Bg">
	<rect style="fill:#FFF5E1;" width="1122" height="1122"/>
</g>
<g id="Object">
	<g>
		<path style="fill:#0C1844;" d="M909.663,382.803c-0.015-17.321-14.055-31.339-31.377-31.324l-634.954,0.603
			c-17.307,0.019-31.354,14.063-31.332,31.381l0.337,355.735c0.015,17.311,14.078,31.336,31.377,31.324l634.962-0.595
			c17.337-0.022,31.347-14.082,31.324-31.388l-0.217-226.903l-697.671,0.663l-0.074-95.998l697.67-0.66L909.663,382.803z
			 M553.508,546.878l0.045,41.139l-299.201,0.285l-0.045-41.142L553.508,546.878z"/>
		<polygon style="fill:#C80036;" points="909.708,415.64 212.038,416.3 212.112,512.298 909.783,511.635 909.783,511.635 
			909.738,485.339 909.708,415.648 		"/>
		<rect x="254.33" y="547.018" style="fill:#FF6969;" width="299.201" height="41.141"/>

	</g>
</g>

</svg>
